<svg xmlns="http://www.w3.org/2000/svg" viewBox="0 0 829.36 829.17"><defs><style>.cls-1{fill:#fff;}</style></defs><g id="Capa_2" data-name="Capa 2"><g id="Capa_1-2" data-name="Capa 1"><rect class="cls-1" x="570.97" y="56.85" width="33.79" height="197.38" rx="1.68" transform="translate(893.56 681.19) rotate(-135)"/><rect class="cls-1" x="619.76" y="58.37" width="33.79" height="253.43" rx="1.68" transform="translate(955.96 766.15) rotate(-135)"/><rect class="cls-1" x="647.48" y="135.13" width="33.79" height="205.95" rx="1.68" transform="translate(965.79 876.25) rotate(-135)"/><path class="cls-1" d="M821.5,347.93q-2.32-14.07-5.56-27.81a90.42,90.42,0,0,0-157-22.82l-19.27,19.27-17.56,17.56a38.11,38.11,0,0,1-36.22-1.29L572,319l-61.73-61.73-13.85-13.85a38.19,38.19,0,0,1,0-38.63l13.87-13.87,21-21A90.4,90.4,0,0,0,509.44,13.33q-14.91-3.55-30.23-6a417.13,417.13,0,0,0-65.69-5.21,412.92,412.92,0,0,0-135.6,22.77C116.15,81,0,234.76,0,415.65A413.43,413.43,0,0,0,413.52,829.17c228.39,0,413.53-185.14,413.53-413.52A416.28,416.28,0,0,0,821.5,347.93Zm-120.91-1.32a38.15,38.15,0,1,1-38.15,38.14A38.14,38.14,0,0,1,700.59,346.61Zm-285.06,257-93,30.12-166.69,54L427.45,414.85a38.16,38.16,0,1,0,3.08-66.64c-.32.16-.63.34-.94.5a38,38,0,0,0-16.08,51.12l-272.44,273,53.6-166.32,30.18-93.65L445.44,255.77h0L574.79,381.43l.19.18Z"/><path class="cls-1" d="M669.07,57.25c-4.69,7-4.83,16.57,3.94,22.09C689.46,89.69,695.72,67,708.08,62.75c14.35-4.91,32.49,6.53,42.63,16.67,8.66,8.65,14.35,21.36,13.95,33.31-.53,15.76-28.79,29.47-13.5,44.77,11.27,11.27,23,3.84,36.65-10.68,11-11.71,10.05-18.37,14.47-33.71.78-2.7,9.13-39.81,10-39.64-11.27-2.29-28-7-37.24-16.3-9.83-9.82-17.21-27.17-19.2-39.08-10.53,2.36-19.71,3.55-30.62,6-11.56,2.64-21,5.09-30.58,9.85s-17.15,13.31-24,21.22A19.1,19.1,0,0,0,669.07,57.25Z"/><path class="cls-1" d="M815.09,61.08l14-52.38A6.91,6.91,0,0,0,820.66.24l-51,13.68a62.44,62.44,0,0,0,16.87,30.83A62.47,62.47,0,0,0,815.09,61.08Z"/></g></g></svg>