<svg id="Capa_2" data-name="Capa 2" xmlns="http://www.w3.org/2000/svg" viewBox="0 0 286.89 160.02"><defs><style>.cls-1,.cls-3{fill:none;stroke:#fff;stroke-miterlimit:10;}.cls-1{stroke-width:6px;}.cls-2{fill:#fff;}.cls-3{stroke-linecap:square;stroke-width:3px;}</style></defs><polyline class="cls-1" points="6.1 155.24 6.1 3.68 57.94 3.68 85.3 42.56 113.1 3.39 283.88 3.55 283.82 42.2 262.34 42.56"/><circle class="cls-2" cx="5.74" cy="154.28" r="5.74"/><circle class="cls-2" cx="19.78" cy="154.28" r="5.74"/><polyline class="cls-1" points="19.34 155.36 58.22 155.36 58.22 63.92 85.38 97.15 111.5 63.92 112.1 155.24 163.58 155.12 163.94 40.28 201.38 40.28 201.38 155.24 242.42 155.24 242.42 40.96"/><circle class="cls-3" cx="85.95" cy="24.17" r="3.53"/><path class="cls-3" d="M438.87,411.13s6.41-7.54,13.79,0" transform="translate(-359.82 -392.4)"/><path class="cls-3" d="M433.2,407s12.26-14.33,25.13,0" transform="translate(-359.82 -392.4)"/><path class="cls-3" d="M428.29,402.16c-.34,0,16-18.26,34.49-.46" transform="translate(-359.82 -392.4)"/><circle class="cls-2" cx="242.26" cy="41.92" r="5.74"/><circle class="cls-2" cx="261.58" cy="41.92" r="5.74"/></svg>