<svg id="Capa_2" data-name="Capa 2" xmlns="http://www.w3.org/2000/svg" viewBox="0 0 622.92 346.59"><defs><style>.cls-1,.cls-2,.cls-3{fill:none;stroke:#000;stroke-miterlimit:10;}.cls-1{stroke-width:13.03px;}.cls-2{stroke-linecap:square;}.cls-2,.cls-3{stroke-width:5.78px;}.cls-3{stroke-linecap:round;}</style></defs><polyline class="cls-1" points="13.24 336.22 13.24 7.13 125.81 7.13 185.21 91.55 245.58 6.52 616.4 6.87 616.27 90.77 569.63 91.55"/><circle cx="12.46" cy="334.13" r="12.46"/><circle cx="42.95" cy="334.13" r="12.46"/><polyline class="cls-1" points="41.99 336.48 126.42 336.48 126.42 137.93 185.39 210.1 242.1 137.93 243.41 336.22 355.19 335.95 355.97 86.6 437.26 86.6 437.26 336.22 526.37 336.22 526.37 88.08"/><circle class="cls-2" cx="186.56" cy="49.27" r="6.79"/><path class="cls-3" d="M366.84,337.45s12.35-14.52,26.56,0" transform="translate(-193.56 -298.66)"/><path class="cls-3" d="M355.92,329.48s23.61-27.59,48.4,0" transform="translate(-193.56 -298.66)"/><path class="cls-3" d="M347,319.64c-.67-.05,30.24-34.61,65.88-.34" transform="translate(-193.56 -298.66)"/><circle cx="526.02" cy="90.16" r="12.46"/><circle cx="567.97" cy="90.16" r="12.46"/></svg>