<svg id="Capa_1" data-name="Capa 1" xmlns="http://www.w3.org/2000/svg" viewBox="0 0 870.75 870.75"><defs><style>.cls-1{fill:#fff;}</style></defs><path class="cls-1" d="M564.82,164.62c-240.45,0-435.38,194.93-435.38,435.38s194.93,435.38,435.38,435.38S1000.19,840.45,1000.19,600,805.27,164.62,564.82,164.62ZM709.31,513.73a221.13,221.13,0,0,0-58-8.12c-18.69,0-31.85,5.55-38.38,13.27-8.7,8.89-12.06,24.33-12.06,49.45v32.84H694V702.86H600.9v327.61c-12,2.17-24.14,2.17-36.11,2.17a412.73,412.73,0,0,1-92-9.89V702.86H402.57V601.17H472.8v-35c0-39.58,4.35-71,13.16-89.82,8.7-21,24-35.41,47.08-48.07,23-13.25,51.44-18.8,87.64-18.8s71.22,3.36,105.15,15.23Z" transform="translate(-129.44 -164.62)"/></svg>