<svg id="Capa_1" data-name="Capa 1" xmlns="http://www.w3.org/2000/svg" viewBox="0 0 780.73 780.73"><defs><style>.cls-1{fill:#fff;}</style></defs><path class="cls-1" d="M722.84,533.88c-6.34,0-8.09,1.23-6.68,8.46,4,18.83,2.45,39.41-2.83,58.61-17.59,61.42-81.67,99.8-145.74,87.65C505.46,676.45,461.81,615,469,552.2c2.11-18.32,1.75-17.43-16.9-19-13-.36-16.89,2.63-16.89,16.73.88,49.63.7,99.61.7,148.89,0,19,5.28,24.3,23.94,24.3H726.72c19,0,23.93-5.29,24.28-24.3V560.47C751,531.25,751,531.6,722.84,533.88Z" transform="translate(-209.63 -178.92)"/><path class="cls-1" d="M710.51,407.86c-39.41,0-39.41,0-39.41,39.78,0,40.12,0,40.12,40.12,40.12,39.78,0,39.78,0,39.78-39.42C751,407.86,751,407.86,710.51,407.86Z" transform="translate(-209.63 -178.92)"/><path class="cls-1" d="M592.24,644.24c43.3.71,79.56-35.2,79.9-78.85.71-42.41-35.9-79.2-78.49-79.2s-78.51,35.55-79.56,78.5C513,607.11,549.29,643.54,592.24,644.24Z" transform="translate(-209.63 -178.92)"/><path class="cls-1" d="M600,178.92c-215.59,0-390.37,174.77-390.37,390.37S384.41,959.65,600,959.65,990.37,784.88,990.37,569.29,815.59,178.92,600,178.92ZM797.64,715.53c0,34.85-19.18,53.69-54,53.69h-302c-33.44,0-52.45-18.84-52.45-53.33V416.14c0-35.56,18.47-54.58,54.21-54.58H743.61c34.85,0,54,19,54,53.33Z" transform="translate(-209.63 -178.92)"/></svg>