<svg id="Capa_1" data-name="Capa 1" xmlns="http://www.w3.org/2000/svg" viewBox="0 0 867.37 867.37"><defs><style>.cls-1{fill:#fff;}</style></defs><path class="cls-1" d="M648.15,412.94c-88.57-19.1-163.15,11-217.43,83.55C378.6,567,376.53,660.23,423.13,736.28c3.75,4.54,4.14,9.26,2.66,15.17-6.7,22.07-12.41,43.74-18.52,65-1.08,4.54-.59,5.51,4.14,4.13,23-5.91,45.71-12.2,69-17.73,4.63-1.78,8.28-1,13.1,2,34,19.51,70.54,29.74,116,29.74,5.81.78,17.35-.39,29.66-2.57C759.28,812.54,839.66,694.31,811.4,575.1,791.5,488,735.53,431.26,648.15,412.94Zm85,283.34c-1.67,26.8-22.27,40.4-45.82,47.1a42.17,42.17,0,0,1-17.13.38c-9,1-18-.79-26.69-3.35C584.7,723.08,540.17,687,504.41,638.16c-13.3-18.12-26-37.63-29.85-60.7-5.42-26.59,2.95-50.44,23.15-68.56,6.7-6.49,26.3-9.46,34.28-5.12a27.78,27.78,0,0,1,5.72,6.7c7.29,18.32,15.07,35.27,22.46,52.6a14,14,0,0,1-1.08,11c-3.94,8.1-10,14.39-15.76,21.29-4.93,4.14-4.93,8.86-1.58,14,21.08,35.27,49.55,60.7,87.77,75.46,5.53,2.18,9.77,1.4,13.22-2.94,6.6-7.69,13.09-16.16,19.21-24.23,3.73-4.93,8.76-5.92,14.28-3.35,12.61,5.51,25,11.42,37,16.95,3.35,1.77,5.71,2.94,8.65,4.31C734.65,681.9,734.65,682.69,733.17,696.28Z" transform="translate(-168.78 -190.27)"/><path class="cls-1" d="M602.46,190.27C363,190.27,168.78,384.44,168.78,624S363,1057.64,602.46,1057.64,1036.15,863.47,1036.15,624,842,190.27,602.46,190.27Zm51.4,682.94c-59.11,11-115.46,3.35-168.86-23.82-3.05-1.58-5.61-1.58-9.26-.41-41.57,10.25-82.85,20.89-124.53,32.33-6.6,1.77-6.6,1.77-4.83-5.13,10.65-39.81,21.68-80.2,33.7-119.61.59-4.72.59-8.47-2.37-12.81C295.16,592.05,383,403.68,553.77,369.2c15.76-3,33.1-4.14,49.16-4.92,121.77,1.57,222.75,81.37,250.74,198.41C887.36,702.2,794.85,846,653.86,873.21Z" transform="translate(-168.78 -190.27)"/></svg>